<mxfile host="app.diagrams.net" agent="Mozilla/5.0 (Windows NT 10.0; Win64; x64) AppleWebKit/537.36 (KHTML, like Gecko) Chrome/114.0.0.0 Safari/537.36" version="26.2.13">
  <diagram name="第 1 页" id="0SoZTpLjDrWjceOngaXI">
    <mxGraphModel dx="2255" dy="769" grid="1" gridSize="10" guides="1" tooltips="1" connect="1" arrows="1" fold="1" page="1" pageScale="1" pageWidth="827" pageHeight="1169" math="0" shadow="0">
      <root>
        <mxCell id="0" />
        <mxCell id="1" parent="0" />
        <mxCell id="maV9hu9B-Oq1pYv03Z-j-4" style="edgeStyle=orthogonalEdgeStyle;rounded=0;orthogonalLoop=1;jettySize=auto;html=1;exitX=1;exitY=0.5;exitDx=0;exitDy=0;entryX=0;entryY=0.5;entryDx=0;entryDy=0;" edge="1" parent="1" source="maV9hu9B-Oq1pYv03Z-j-2" target="maV9hu9B-Oq1pYv03Z-j-3">
          <mxGeometry relative="1" as="geometry" />
        </mxCell>
        <mxCell id="maV9hu9B-Oq1pYv03Z-j-2" value="客户端" style="rounded=0;whiteSpace=wrap;html=1;" vertex="1" parent="1">
          <mxGeometry x="-240" y="190" width="110" height="50" as="geometry" />
        </mxCell>
        <mxCell id="maV9hu9B-Oq1pYv03Z-j-6" style="edgeStyle=orthogonalEdgeStyle;rounded=0;orthogonalLoop=1;jettySize=auto;html=1;exitX=1;exitY=0.5;exitDx=0;exitDy=0;" edge="1" parent="1" source="maV9hu9B-Oq1pYv03Z-j-3" target="maV9hu9B-Oq1pYv03Z-j-5">
          <mxGeometry relative="1" as="geometry" />
        </mxCell>
        <mxCell id="maV9hu9B-Oq1pYv03Z-j-3" value="公网网关" style="rounded=0;whiteSpace=wrap;html=1;" vertex="1" parent="1">
          <mxGeometry x="-20" y="190" width="130" height="50" as="geometry" />
        </mxCell>
        <mxCell id="maV9hu9B-Oq1pYv03Z-j-8" style="edgeStyle=orthogonalEdgeStyle;rounded=0;orthogonalLoop=1;jettySize=auto;html=1;exitX=0.5;exitY=1;exitDx=0;exitDy=0;entryX=0.5;entryY=0;entryDx=0;entryDy=0;" edge="1" parent="1" source="maV9hu9B-Oq1pYv03Z-j-5" target="maV9hu9B-Oq1pYv03Z-j-7">
          <mxGeometry relative="1" as="geometry" />
        </mxCell>
        <mxCell id="maV9hu9B-Oq1pYv03Z-j-9" value="http json&lt;br&gt;http sse&lt;br&gt;……" style="edgeLabel;html=1;align=center;verticalAlign=middle;resizable=0;points=[];" vertex="1" connectable="0" parent="maV9hu9B-Oq1pYv03Z-j-8">
          <mxGeometry x="-0.1" y="3" relative="1" as="geometry">
            <mxPoint as="offset" />
          </mxGeometry>
        </mxCell>
        <mxCell id="maV9hu9B-Oq1pYv03Z-j-5" value="odin网关&lt;br&gt;personal-ai-deployment" style="rounded=0;whiteSpace=wrap;html=1;" vertex="1" parent="1">
          <mxGeometry x="220" y="190" width="160" height="50" as="geometry" />
        </mxCell>
        <mxCell id="maV9hu9B-Oq1pYv03Z-j-7" value="内网网关" style="rounded=0;whiteSpace=wrap;html=1;" vertex="1" parent="1">
          <mxGeometry x="220" y="330" width="160" height="50" as="geometry" />
        </mxCell>
        <mxCell id="maV9hu9B-Oq1pYv03Z-j-10" value="记忆顾问" style="rounded=0;whiteSpace=wrap;html=1;" vertex="1" parent="1">
          <mxGeometry x="80" y="470" width="100" height="50" as="geometry" />
        </mxCell>
        <mxCell id="maV9hu9B-Oq1pYv03Z-j-11" value="记忆整理" style="rounded=0;whiteSpace=wrap;html=1;" vertex="1" parent="1">
          <mxGeometry x="192.5" y="470" width="115" height="50" as="geometry" />
        </mxCell>
        <mxCell id="maV9hu9B-Oq1pYv03Z-j-12" value="关联记忆" style="rounded=0;whiteSpace=wrap;html=1;" vertex="1" parent="1">
          <mxGeometry x="320" y="470" width="100" height="50" as="geometry" />
        </mxCell>
        <mxCell id="maV9hu9B-Oq1pYv03Z-j-13" value="记忆合集" style="rounded=0;whiteSpace=wrap;html=1;" vertex="1" parent="1">
          <mxGeometry x="430" y="470" width="100" height="50" as="geometry" />
        </mxCell>
        <mxCell id="maV9hu9B-Oq1pYv03Z-j-14" value="&lt;span data-copy-origin=&quot;https://odocs.myoas.com&quot; data-docs-delta=&quot;[[20,&amp;quot;odin-inference-cn.allawntech.com&amp;quot;]]&quot;&gt;&lt;p style=&quot;line-height: 100%;margin-bottom: 0pt;margin-top: 0pt;font-size: 11pt;color: #494949;&quot; class=&quot;ql-direction-ltr&quot;&gt;&lt;span data-comment-guid=&quot;comment-kPgM4mOFd5TCmoWD&quot; class=&quot;ql-author-7945 ql-commented ql-commented-background&quot;&gt;举例域名 &lt;br&gt;odin-inference-cn.allawntech.com&lt;br&gt;&lt;span data-copy-origin=&quot;https://odocs.myoas.com&quot; data-docs-delta=&quot;[[20,&amp;quot;personal-inference-in.allawntech.com&amp;quot;]]&quot;&gt;&lt;/span&gt;&lt;/span&gt;&lt;/p&gt;&lt;p style=&quot;line-height: 100%;margin-bottom: 0pt;margin-top: 0pt;font-size: 11pt;color: #494949;&quot; class=&quot;ql-direction-ltr&quot;&gt;&lt;span style=&quot;&quot; class=&quot;ql-author-7945&quot;&gt;personal-inference-in.allawntech.com&lt;/span&gt;&lt;/p&gt;&lt;/span&gt;" style="text;html=1;align=center;verticalAlign=middle;whiteSpace=wrap;rounded=0;" vertex="1" parent="1">
          <mxGeometry x="-250" y="130" width="370" height="50" as="geometry" />
        </mxCell>
        <mxCell id="maV9hu9B-Oq1pYv03Z-j-15" value="&lt;span data-copy-origin=&quot;https://odocs.myoas.com&quot; data-docs-delta=&quot;[[20,&amp;quot;odin-inference-cn.allawntech.com&amp;quot;]]&quot;&gt;&lt;p style=&quot;line-height: 100%;margin-bottom: 0pt;margin-top: 0pt;font-size: 11pt;color: #494949;&quot; class=&quot;ql-direction-ltr&quot;&gt;&lt;span data-comment-guid=&quot;comment-kPgM4mOFd5TCmoWD&quot; class=&quot;ql-author-7945 ql-commented ql-commented-background&quot;&gt;举例域名 &lt;br&gt;odin-inference-cn.allawntech.com&lt;br&gt;&lt;/span&gt;&lt;/p&gt;&lt;/span&gt;" style="text;html=1;align=center;verticalAlign=middle;whiteSpace=wrap;rounded=0;" vertex="1" parent="1">
          <mxGeometry x="340" y="260" width="370" height="50" as="geometry" />
        </mxCell>
      </root>
    </mxGraphModel>
  </diagram>
</mxfile>
